<svg width="1986" height="560" fill="none" xmlns="http://www.w3.org/2000/svg"><path d="M641 339.965v-10.006c6.48 0 11.895-1.852 16.246-5.558 4.443-3.706 6.665-8.616 6.665-14.731V170.006h9.997V309.67c0 8.801-3.194 16.074-9.581 21.818-6.387 5.652-14.163 8.477-23.327 8.477zm0 20.012v-10.006c12.034 0 22.17-3.891 30.409-11.673 8.331-7.875 12.496-17.418 12.496-28.628V170.006h9.997V309.67c0 13.897-5.137 25.756-15.412 35.576-10.183 9.821-22.679 14.731-37.49 14.731zm0 20.011v-10.005c17.588 0 32.445-5.883 44.571-17.649 12.219-11.767 18.329-25.988 18.329-42.664V170.006h9.997V309.67c0 12.692-3.24 24.459-9.719 35.298-6.388 10.747-15.182 19.271-26.382 25.571-11.201 6.299-23.466 9.449-36.796 9.449zM641 400v-10.006c11.386 0 22.17-2.131 32.352-6.392 10.275-4.262 19.069-9.96 26.382-17.094 7.406-7.226 13.284-15.796 17.634-25.709 4.351-9.913 6.526-20.289 6.526-31.129V170.006h9.998V309.67c0 12.229-2.453 23.903-7.359 35.02-4.814 11.118-11.386 20.707-19.717 28.767-8.239 8.153-18.097 14.592-29.576 19.317C665.762 397.591 653.682 400 641 400zM835.67 241.853c-7.776 7.782-11.664 17.186-11.664 28.211 0 11.025 3.888 20.475 11.664 28.349 7.868 7.783 17.31 11.674 28.326 11.674 11.015 0 20.411-3.891 28.187-11.674 7.868-7.874 11.802-17.324 11.802-28.349 0-11.025-3.934-20.429-11.802-28.211-7.776-7.875-17.172-11.812-28.187-11.812-11.016 0-20.458 3.937-28.326 11.812zm-7.081 63.648c-9.72-9.821-14.58-21.633-14.58-35.437 0-13.805 4.86-25.571 14.58-35.299 9.812-9.82 21.614-14.73 35.407-14.73 13.792 0 25.548 4.91 35.268 14.73 9.812 9.728 14.718 21.494 14.718 35.299 0 13.804-4.906 25.616-14.718 35.437-9.72 9.728-21.476 14.592-35.268 14.592-13.793 0-25.595-4.864-35.407-14.592zm-7.082-77.823c-11.663 11.766-17.495 25.895-17.495 42.386 0 16.491 5.832 30.619 17.495 42.385 11.756 11.766 25.919 17.649 42.489 17.649 16.569 0 30.686-5.883 42.35-17.649 11.756-11.766 17.634-25.894 17.634-42.385s-5.878-30.62-17.634-42.386c-11.664-11.766-25.781-17.649-42.35-17.649-16.57 0-30.733 5.883-42.489 17.649zm-18.189 77.545c-6.202-10.747-9.303-22.467-9.303-35.159 0-12.693 3.101-24.413 9.303-35.16 6.294-10.747 14.81-19.224 25.548-25.431 10.738-6.3 22.448-9.45 35.13-9.45 12.682 0 24.391 3.15 35.129 9.45 10.738 6.207 19.208 14.684 25.41 25.431 6.295 10.747 9.442 22.467 9.442 35.16 0 12.692-3.147 24.412-9.442 35.159-6.202 10.747-14.672 19.27-25.41 25.57-10.738 6.208-22.447 9.311-35.129 9.311-12.682 0-24.392-3.103-35.13-9.311-10.738-6.3-19.254-14.823-25.548-25.57zm-13.052-66.149c-4.166 9.82-6.249 20.15-6.249 30.99 0 10.839 2.083 21.216 6.249 31.129 4.258 9.82 9.951 18.344 17.078 25.57 7.221 7.134 15.737 12.832 25.549 17.093 9.905 4.169 20.272 6.254 31.103 6.254 10.83 0 21.152-2.085 30.964-6.254 9.904-4.261 18.421-9.959 25.548-17.093 7.221-7.226 12.914-15.75 17.079-25.57 4.258-9.913 6.387-20.29 6.387-31.129 0-10.84-2.129-21.17-6.387-30.99-4.165-9.914-9.858-18.437-17.079-25.571-7.127-7.226-15.644-12.924-25.548-17.093-9.812-4.262-20.134-6.393-30.964-6.393-10.831 0-21.198 2.131-31.103 6.393-9.812 4.169-18.328 9.867-25.549 17.093-7.127 7.134-12.82 15.657-17.078 25.571zm-9.165 66.01c-4.721-11.118-7.081-22.791-7.081-35.02 0-12.23 2.36-23.903 7.081-35.021 4.814-11.117 11.201-20.66 19.162-28.627 8.053-8.06 17.634-14.453 28.742-19.178 11.108-4.818 22.772-7.226 34.991-7.226 12.219 0 23.882 2.408 34.99 7.226 11.109 4.725 20.643 11.118 28.604 19.178 8.053 7.967 14.44 17.51 19.161 28.627 4.814 11.118 7.221 22.791 7.221 35.021 0 12.229-2.407 23.902-7.221 35.02-4.721 11.118-11.108 20.706-19.161 28.767-7.961 7.967-17.495 14.36-28.604 19.177-11.108 4.725-22.771 7.088-34.99 7.088-12.219 0-23.883-2.363-34.991-7.088-11.108-4.817-20.689-11.21-28.742-19.177-7.961-8.061-14.348-17.649-19.162-28.767zm-9.164-73.793c-5.276 12.322-7.914 25.246-7.914 38.773 0 13.526 2.638 26.497 7.914 38.911 5.276 12.322 12.358 22.976 21.244 31.963 8.979 8.894 19.625 15.982 31.936 21.262 12.404 5.281 25.364 7.922 38.879 7.922 13.515 0 26.428-2.641 38.739-7.922 12.404-5.28 23.05-12.368 31.936-21.262 8.979-8.987 16.107-19.641 21.383-31.963 5.277-12.414 7.915-25.385 7.915-38.911 0-13.527-2.638-26.451-7.915-38.773-5.276-12.414-12.404-23.069-21.383-31.963-8.886-8.986-19.532-16.12-31.936-21.401-12.311-5.281-25.224-7.921-38.739-7.921-13.515 0-26.475 2.64-38.879 7.921-12.311 5.281-22.957 12.415-31.936 21.401-8.886 8.894-15.968 19.549-21.244 31.963zm-9.164 81.575c-5.832-13.619-8.748-27.886-8.748-42.802s2.916-29.138 8.748-42.664c5.832-13.619 13.654-25.339 23.466-35.159 9.812-9.821 21.476-17.649 34.99-23.486 13.608-5.837 27.863-8.755 42.767-8.755 14.903 0 29.112 2.918 42.627 8.755 13.608 5.837 25.318 13.665 35.13 23.486 9.812 9.82 17.634 21.54 23.466 35.159 5.831 13.526 8.747 27.748 8.747 42.664s-2.916 29.183-8.747 42.802c-5.832 13.527-13.654 25.2-23.466 35.021-9.812 9.82-21.522 17.649-35.13 23.485-13.515 5.837-27.724 8.755-42.627 8.755-14.904 0-29.159-2.918-42.767-8.755-13.514-5.836-25.178-13.665-34.99-23.485-9.812-9.821-17.634-21.494-23.466-35.021zM1088.38 274.928h-15.83c-19.44 0-34.39-3.938-44.85-11.813-10.46-7.967-15.69-18.9-15.69-32.797 0-12.97 6.16-23.763 18.47-32.379 12.31-8.709 29.57-13.063 51.79-13.063 14.81 0 28.6 2.038 41.38 6.114 12.87 4.077 23.56 9.821 32.07 17.232l-7.77 6.254c-7.59-6.207-17.13-11.025-28.61-14.453-11.47-3.428-23.83-5.142-37.07-5.142-19.53 0-34.48 3.336-44.85 10.006-10.27 6.671-15.41 15.148-15.41 25.431 0 11.118 4.21 19.688 12.63 25.71 8.52 5.929 21.16 8.894 37.91 8.894h15.27c19.72 0 34.81 3.984 45.27 11.951 10.55 7.875 15.83 18.761 15.83 32.658 0 12.97-6.16 23.81-18.47 32.519-12.31 8.616-29.57 12.924-51.79 12.924-14.81 0-28.65-2.038-41.52-6.115-12.77-4.076-23.42-9.82-31.93-17.232l7.77-6.254c7.59 6.208 17.13 11.025 28.61 14.453 11.48 3.428 23.83 5.142 37.07 5.142 19.53 0 34.44-3.335 44.71-10.006 10.37-6.67 15.55-15.147 15.55-25.431 0-11.118-4.26-19.641-12.77-25.57-8.43-6.022-21.02-9.033-37.77-9.033zm0 20.011h-15.83c-25.73 0-45.59-5.837-59.57-17.51-13.974-11.766-20.963-27.47-20.963-47.111 0-8.986 1.99-17.417 5.971-25.292 3.982-7.875 9.672-14.777 17.082-20.706 7.49-6.022 17.03-10.747 28.6-14.175 11.57-3.521 24.44-5.281 38.6-5.281 17.87 0 34.57 2.733 50.13 8.199 15.55 5.374 28.51 12.924 38.87 22.652l-8.05 5.976c-9.44-8.524-21.24-15.102-35.41-19.734-14.16-4.725-29.34-7.087-45.54-7.087-24.99 0-44.62 5.281-58.87 15.842-14.26 10.562-21.39 23.764-21.39 39.606 0 16.769 6.11 30.064 18.33 39.885 12.22 9.82 29.62 14.73 52.21 14.73h15.27c27.4 0 41.1 8.2 41.1 24.598 0 7.412-4.21 13.526-12.63 18.344-8.33 4.725-20.87 7.087-37.63 7.087-11.76 0-22.68-1.343-32.77-4.03-10.09-2.779-18.42-6.717-24.99-11.812l7.91-6.115c11.57 7.968 28.19 11.952 49.85 11.952 13.89 0 24.07-1.436 30.55-4.308 6.48-2.873 9.72-6.578 9.72-11.118 0-5.281-2.27-9.033-6.81-11.257-4.53-2.223-12.45-3.335-23.74-3.335zm0-40.023h-15.83c-27.03 0-40.54-8.199-40.54-24.598 0-7.411 4.16-13.48 12.49-18.205 8.43-4.817 21.02-7.226 37.77-7.226 11.76 0 22.68 1.39 32.77 4.169 10.09 2.687 18.42 6.578 24.99 11.674l-7.91 6.114c-11.57-7.967-28.19-11.951-49.85-11.951-13.88 0-24.07 1.436-30.55 4.308s-9.72 6.578-9.72 11.117c0 5.281 2.27 9.033 6.81 11.257 4.53 2.223 12.45 3.335 23.74 3.335h15.83c25.73 0 45.59 5.883 59.57 17.649 13.98 11.674 20.96 27.331 20.96 46.972 0 8.987-1.99 17.417-5.97 25.292-3.98 7.875-9.72 14.824-17.21 20.846-7.41 5.929-16.9 10.654-28.47 14.175-11.57 3.428-24.44 5.142-38.6 5.142-17.87 0-34.57-2.687-50.13-8.061-15.55-5.466-28.51-13.063-38.873-22.791l8.053-5.975c9.44 8.523 21.24 15.147 35.41 19.872 14.16 4.633 29.34 6.949 45.54 6.949 24.99 0 44.62-5.281 58.87-15.843 14.26-10.561 21.39-23.764 21.39-39.606 0-16.769-6.11-30.064-18.33-39.884-12.22-9.821-29.62-14.731-52.21-14.731zM1240.84 370.122h-10V170.006h10v200.116zm-20 0h-9.99V170.006h9.99v200.116zm-19.99 0h-10V170.006h10v200.116zm59.98-50.029h95.67v10.005h-95.67v10.006h95.67v10.006h-95.67v10.006h95.67v10.006h-105.66V170.006h105.66v10.006h-95.67v10.005h95.67v10.006h-95.67v10.006h95.67v10.006h-95.67v24.875h90.12v10.006h-90.12v10.006h90.12v10.006h-90.12v10.005h90.12v10.006h-90.12v25.154zM1456.06 274.511h60.26c7.96 0 14.72-2.502 20.27-7.505 5.56-5.003 8.33-12.044 8.33-21.123 0-6.67-2.91-12.646-8.74-17.927-5.74-5.281-12.36-7.921-19.86-7.921h-85.81v150.087h-10V210.029h95.81c10.28 0 19.25 3.613 26.94 10.84 7.77 7.226 11.66 15.564 11.66 25.014 0 11.766-3.75 21.17-11.25 28.211-7.49 6.948-16.61 10.423-27.35 10.423h-60.26v-10.006zm0 20.011h60.26c13.33 0 24.76-4.539 34.3-13.619 9.53-9.079 14.3-20.752 14.3-35.02 0-12.137-4.86-22.791-14.58-31.963-9.72-9.265-21.06-13.897-34.02-13.897h-105.8v170.099h-10V190.017h115.8c15.74 0 29.44 5.605 41.1 16.816 11.66 11.117 17.5 24.134 17.5 39.05 0 16.676-5.79 30.62-17.36 41.83-11.48 11.21-25.22 16.815-41.24 16.815h-60.26v-10.006zm0 20.012h60.26c12.31 0 23.7-2.965 34.16-8.894 10.46-5.93 18.79-14.175 24.99-24.737 6.3-10.561 9.44-22.235 9.44-35.02 0-11.581-3.1-22.42-9.3-32.519-6.2-10.191-14.63-18.297-25.27-24.319-10.55-6.022-21.89-9.033-34.02-9.033h-125.8v190.11h-10V170.006h135.8c10.46 0 20.5 2.084 30.13 6.253 9.72 4.077 18.1 9.543 25.13 16.399 7.04 6.763 12.69 14.823 16.94 24.18 4.26 9.358 6.39 19.039 6.39 29.045 0 16.213-3.7 30.388-11.11 42.525-7.4 12.044-17.35 21.216-29.85 27.516l20.97 54.198h-10.7l-19.85-50.168c-2.5.833-5.42 1.667-8.75 2.501l18.75 47.667h-10.7l-18.32-45.999c-2.87.278-5.88.417-9.03.417l17.64 45.582h-10.56l-17.49-45.582h-9.03l16.8 45.582h-10.55l-16.94-45.582h-30.13v-10.006zm-5.55 55.588h-10V230.041h75.81c5.18 0 9.58 1.575 13.19 4.724 3.61 3.058 5.42 6.764 5.42 11.118 0 12.415-6.21 18.622-18.61 18.622h-60.26v-10.006h60.26c5.74 0 8.61-2.872 8.61-8.616 0-1.575-.88-2.918-2.64-4.03-1.66-1.204-3.65-1.807-5.97-1.807h-65.81v130.076zM1687.11 370.122h-10V170.006h95.39v10.006h-85.39v10.005h85.39v10.006h-85.39v10.006h85.39v10.006h-85.39v30.573h78.73v10.006h-78.73v10.006h78.73v10.005h-78.73v10.006h78.73v10.006h-78.73v69.485zm-20 0h-9.99V170.006h9.99v200.116zm-19.99 0h-10V170.006h10v200.116zm-20 0h-9.99V170.006h9.99v200.116zM1938.99 238.935l-8.06 6.114c-8.05-10.006-18.42-15.008-31.1-15.008-11.02 0-20.46 3.937-28.33 11.812-7.77 7.782-11.66 17.186-11.66 28.211 0 11.025 3.89 20.475 11.66 28.349 7.87 7.783 17.31 11.674 28.33 11.674 6.2 0 11.99-1.344 17.36-4.03 5.46-2.687 10.09-6.393 13.88-11.118l7.78 6.532c-4.63 5.836-10.37 10.422-17.22 13.758-6.85 3.242-14.12 4.864-21.8 4.864-13.79 0-25.6-4.864-35.41-14.592-9.72-9.821-14.58-21.633-14.58-35.437 0-13.805 4.86-25.571 14.58-35.299 9.81-9.82 21.62-14.73 35.41-14.73 7.77 0 15.09 1.714 21.94 5.142 6.85 3.335 12.59 7.921 17.22 13.758zm15.55-12.508-7.92 6.115c-5.55-7.041-12.45-12.554-20.69-16.537-8.14-3.984-16.84-5.976-26.1-5.976-16.57 0-30.73 5.883-42.49 17.649-11.66 11.766-17.49 25.895-17.49 42.386 0 16.491 5.83 30.619 17.49 42.385 11.76 11.766 25.92 17.649 42.49 17.649 9.26 0 18-1.991 26.24-5.975 8.24-4.077 15.14-9.635 20.69-16.677l7.64 6.393c-6.48 8.153-14.49 14.592-24.02 19.317-9.54 4.632-19.72 6.948-30.55 6.948-12.68 0-24.39-3.103-35.13-9.311-10.74-6.3-19.25-14.823-25.55-25.57-6.2-10.747-9.3-22.467-9.3-35.159 0-12.693 3.1-24.413 9.3-35.16 6.3-10.747 14.81-19.224 25.55-25.431 10.74-6.3 22.45-9.45 35.13-9.45 10.83 0 21.01 2.363 30.55 7.088 9.62 4.632 17.68 11.071 24.16 19.316zm15.69-12.507-7.78 6.254c-7.5-9.358-16.71-16.723-27.63-22.096-10.92-5.374-22.59-8.061-34.99-8.061-10.83 0-21.2 2.131-31.1 6.393-9.82 4.169-18.33 9.867-25.55 17.093-7.13 7.134-12.82 15.657-17.08 25.571-4.17 9.82-6.25 20.15-6.25 30.99 0 10.839 2.08 21.216 6.25 31.129 4.26 9.82 9.95 18.344 17.08 25.57 7.22 7.134 15.73 12.832 25.55 17.093 9.9 4.169 20.27 6.254 31.1 6.254 12.4 0 24.07-2.687 34.99-8.06 10.92-5.374 20.13-12.739 27.63-22.096l7.5 6.531c-8.42 10.469-18.75 18.715-30.96 24.737-12.22 5.929-25.28 8.894-39.16 8.894-12.22 0-23.88-2.363-34.99-7.088-11.11-4.817-20.69-11.21-28.74-19.177-7.96-8.061-14.35-17.649-19.17-28.767-4.72-11.118-7.08-22.791-7.08-35.02 0-12.23 2.36-23.903 7.08-35.021 4.82-11.117 11.21-20.66 19.17-28.627 8.05-8.06 17.63-14.453 28.74-19.178 11.11-4.818 22.77-7.226 34.99-7.226 13.98 0 27.08 3.011 39.29 9.033 12.32 6.022 22.68 14.313 31.11 24.875zm15.55-12.507-8.06 5.976c-9.34-11.581-20.82-20.707-34.43-27.377-13.52-6.671-28-10.006-43.46-10.006-13.52 0-26.48 2.64-38.88 7.921-12.31 5.281-22.96 12.415-31.94 21.401-8.88 8.894-15.96 19.549-21.24 31.963-5.28 12.322-7.91 25.246-7.91 38.773 0 13.526 2.63 26.497 7.91 38.911 5.28 12.322 12.36 22.976 21.24 31.963 8.98 8.894 19.63 15.982 31.94 21.262 12.4 5.281 25.36 7.922 38.88 7.922 15.46 0 29.94-3.336 43.46-10.006 13.61-6.671 25.09-15.796 34.43-27.377l7.92 6.115c-10.28 12.785-22.91 22.883-37.91 30.295-14.9 7.319-30.87 10.978-47.9 10.978-14.9 0-29.16-2.918-42.77-8.755-13.51-5.836-25.18-13.665-34.99-23.485-9.81-9.821-17.63-21.494-23.46-35.021-5.84-13.619-8.75-27.886-8.75-42.802s2.91-29.138 8.75-42.664c5.83-13.619 13.65-25.339 23.46-35.159 9.81-9.821 21.48-17.649 34.99-23.486 13.61-5.837 27.87-8.755 42.77-8.755 17.03 0 33.05 3.706 48.04 11.118 15 7.319 27.63 17.417 37.91 30.295z" fill="#fff"/><circle cx="280" cy="280" fill="#3E7FCB" r="280"/><circle cx="280" cy="280" fill="#fff" r="260"/><circle cx="280" cy="280" fill="#000" r="240"/><path d="M366.969 420c-14.339 0-26.923-9.092-31.314-22.625l-15.971-48.723h-79.897l-14.839 48.279c-4.479 13.796-17.158 23.031-31.571 23.031-3.46 0-6.897-.548-10.216-1.626-17.227-5.179-27.008-23.744-21.73-41.362l67.437-213.879C233.247 149.49 246.139 140 260.221 140h35.859c14.161 0 27.051 9.328 31.345 22.686l70.921 213.798c5.671 17.48-3.719 36.244-20.921 41.851A33.797 33.797 0 0 1 366.969 420z" fill="#fff" stroke="#3E7FCB" stroke-width="5.363"/><path d="M393.244 191v-33.244H360v-13.512h33.244V111h13.512v33.244H440v13.512h-33.244V191h-13.512z" fill="#fff"/></svg>