<svg width="2331" height="560" viewBox="0 0 2331 560" fill="none" xmlns="http://www.w3.org/2000/svg">
<path d="M650 354.957V342.449C658.1 342.449 664.869 340.133 670.307 335.501C675.861 330.869 678.638 324.731 678.638 317.087V142.507H691.135V317.087C691.135 328.089 687.143 337.18 679.159 344.36C671.175 351.424 661.455 354.957 650 354.957ZM650 379.971V367.464C665.042 367.464 677.712 362.6 688.011 352.872C698.425 343.028 703.631 331.1 703.631 317.087V142.507H716.128V317.087C716.128 334.459 709.706 349.282 696.862 361.558C684.134 373.833 668.514 379.971 650 379.971ZM650 404.986V392.478C671.985 392.478 690.556 385.124 705.714 370.417C720.988 355.709 728.625 337.933 728.625 317.087V142.507H741.121V317.087C741.121 332.953 737.072 347.661 728.972 361.21C720.988 374.644 709.995 385.298 695.995 393.173C681.994 401.048 666.662 404.986 650 404.986ZM650 430V417.493C664.232 417.493 677.712 414.829 690.441 409.502C703.284 404.175 714.277 397.053 723.418 388.135C732.675 379.102 740.022 368.39 745.461 355.999C750.899 343.607 753.618 330.637 753.618 317.087V142.507H766.115V317.087C766.115 332.374 763.048 346.966 756.916 360.863C750.899 374.76 742.683 386.746 732.27 396.821C721.971 407.012 709.648 415.061 695.3 420.967C680.952 426.989 665.852 430 650 430Z" fill="black"/>
<path d="M893.338 232.316C883.618 242.044 878.758 253.798 878.758 267.58C878.758 281.361 883.618 293.173 893.338 303.017C903.173 312.745 914.975 317.609 928.745 317.609C942.514 317.609 954.259 312.745 963.978 303.017C973.814 293.173 978.731 281.361 978.731 267.58C978.731 253.798 973.814 242.044 963.978 232.316C954.259 222.472 942.514 217.551 928.745 217.551C914.975 217.551 903.173 222.472 893.338 232.316ZM884.486 311.876C872.336 299.6 866.261 284.835 866.261 267.58C866.261 250.324 872.336 235.617 884.486 223.457C896.751 211.181 911.504 205.043 928.745 205.043C945.985 205.043 960.681 211.181 972.83 223.457C985.095 235.617 991.228 250.324 991.228 267.58C991.228 284.835 985.095 299.6 972.83 311.876C960.681 324.036 945.985 330.116 928.745 330.116C911.504 330.116 896.751 324.036 884.486 311.876ZM875.634 214.598C861.055 229.305 853.765 246.966 853.765 267.58C853.765 288.193 861.055 305.854 875.634 320.562C890.329 335.269 908.033 342.623 928.745 342.623C949.457 342.623 967.102 335.269 981.682 320.562C996.377 305.854 1003.72 288.193 1003.72 267.58C1003.72 246.966 996.377 229.305 981.682 214.598C967.102 199.89 949.457 192.536 928.745 192.536C908.033 192.536 890.329 199.89 875.634 214.598ZM852.897 311.529C845.144 298.095 841.268 283.445 841.268 267.58C841.268 251.714 845.144 237.064 852.897 223.631C860.765 210.197 871.411 199.6 884.833 191.841C898.255 183.966 912.892 180.029 928.745 180.029C944.597 180.029 959.234 183.966 972.657 191.841C986.079 199.6 996.666 210.197 1004.42 223.631C1012.29 237.064 1016.22 251.714 1016.22 267.58C1016.22 283.445 1012.29 298.095 1004.42 311.529C996.666 324.962 986.079 335.617 972.657 343.492C959.234 351.251 944.597 355.13 928.745 355.13C912.892 355.13 898.255 351.251 884.833 343.492C871.411 335.617 860.765 324.962 852.897 311.529ZM836.582 228.842C831.375 241.118 828.772 254.03 828.772 267.58C828.772 281.129 831.375 294.1 836.582 306.491C841.905 318.767 849.021 329.421 857.93 338.454C866.956 347.371 877.601 354.493 889.866 359.82C902.247 365.032 915.207 367.638 928.745 367.638C942.283 367.638 955.184 365.032 967.45 359.82C979.831 354.493 990.476 347.371 999.385 338.454C1008.41 329.421 1015.53 318.767 1020.73 306.491C1026.06 294.1 1028.72 281.129 1028.72 267.58C1028.72 254.03 1026.06 241.118 1020.73 228.842C1015.53 216.45 1008.41 205.796 999.385 196.879C990.476 187.846 979.831 180.724 967.45 175.512C955.184 170.185 942.283 167.522 928.745 167.522C915.207 167.522 902.247 170.185 889.866 175.512C877.601 180.724 866.956 187.846 857.93 196.879C849.021 205.796 841.905 216.45 836.582 228.842ZM825.127 311.355C819.225 297.458 816.275 282.866 816.275 267.58C816.275 252.293 819.225 237.701 825.127 223.804C831.144 209.907 839.128 197.979 849.079 188.02C859.145 177.944 871.121 169.954 885.006 164.047C898.892 158.025 913.471 155.014 928.745 155.014C944.018 155.014 958.598 158.025 972.483 164.047C986.368 169.954 998.286 177.944 1008.24 188.02C1018.3 197.979 1026.29 209.907 1032.19 223.804C1038.21 237.701 1041.21 252.293 1041.21 267.58C1041.21 282.866 1038.21 297.458 1032.19 311.355C1026.29 325.252 1018.3 337.238 1008.24 347.313C998.286 357.273 986.368 365.263 972.483 371.285C958.598 377.192 944.018 380.145 928.745 380.145C913.471 380.145 898.892 377.192 885.006 371.285C871.121 365.263 859.145 357.273 849.079 347.313C839.128 337.238 831.144 325.252 825.127 311.355ZM813.671 219.114C807.076 234.517 803.778 250.672 803.778 267.58C803.778 284.488 807.076 300.701 813.671 316.219C820.267 331.621 829.119 344.939 840.227 356.173C851.451 367.29 864.757 376.149 880.147 382.75C895.652 389.351 911.851 392.652 928.745 392.652C945.638 392.652 961.78 389.351 977.169 382.75C992.674 376.149 1005.98 367.29 1017.09 356.173C1028.31 344.939 1037.22 331.621 1043.82 316.219C1050.41 300.701 1053.71 284.488 1053.71 267.58C1053.71 250.672 1050.41 234.517 1043.82 219.114C1037.22 203.596 1028.31 190.278 1017.09 179.16C1005.98 167.927 992.674 159.01 977.169 152.409C961.78 145.808 945.638 142.507 928.745 142.507C911.851 142.507 895.652 145.808 880.147 152.409C864.757 159.01 851.451 167.927 840.227 179.16C829.119 190.278 820.267 203.596 813.671 219.114ZM802.216 321.083C794.926 304.059 791.282 286.225 791.282 267.58C791.282 248.935 794.926 231.158 802.216 214.25C809.506 197.226 819.283 182.577 831.549 170.301C843.814 158.025 858.393 148.24 875.287 140.944C892.296 133.648 910.115 130 928.745 130C947.374 130 965.135 133.648 982.029 140.944C999.038 148.24 1013.68 158.025 1025.94 170.301C1038.21 182.577 1047.98 197.226 1055.27 214.25C1062.56 231.158 1066.21 248.935 1066.21 267.58C1066.21 286.225 1062.56 304.059 1055.27 321.083C1047.98 337.991 1038.21 352.583 1025.94 364.858C1013.68 377.134 999.038 386.92 982.029 394.215C965.135 401.511 947.374 405.159 928.745 405.159C910.115 405.159 892.296 401.511 875.287 394.215C858.393 386.92 843.814 377.134 831.549 364.858C819.283 352.583 809.506 337.991 802.216 321.083Z" fill="black"/>
<path d="M1209.23 273.66H1189.44C1165.14 273.66 1146.45 268.738 1133.38 258.894C1120.3 248.935 1113.76 235.269 1113.76 217.898C1113.76 201.685 1121.46 188.193 1136.85 177.423C1152.24 166.537 1173.82 161.094 1201.59 161.094C1220.1 161.094 1237.34 163.642 1253.31 168.738C1269.39 173.833 1282.76 181.013 1293.4 190.278L1283.68 198.095C1274.2 190.336 1262.28 184.314 1247.93 180.029C1233.58 175.744 1218.13 173.602 1201.59 173.602C1177.17 173.602 1158.49 177.771 1145.53 186.109C1132.68 194.447 1126.26 205.043 1126.26 217.898C1126.26 231.795 1131.53 242.507 1142.06 250.035C1152.7 257.446 1168.5 261.152 1189.44 261.152H1208.53C1233.18 261.152 1252.04 266.132 1265.11 276.091C1278.3 285.935 1284.9 299.543 1284.9 316.914C1284.9 333.127 1277.2 346.676 1261.82 357.562C1246.43 368.332 1224.85 373.717 1197.08 373.717C1178.56 373.717 1161.26 371.17 1145.18 366.074C1129.21 360.979 1115.91 353.798 1105.26 344.534L1114.98 336.717C1124.47 344.476 1136.39 350.498 1150.73 354.783C1165.08 359.068 1180.53 361.21 1197.08 361.21C1221.49 361.21 1240.12 357.041 1252.96 348.703C1265.92 340.365 1272.4 329.768 1272.4 316.914C1272.4 303.017 1267.08 292.362 1256.43 284.951C1245.91 277.423 1230.17 273.66 1209.23 273.66ZM1209.23 298.674H1189.44C1157.27 298.674 1132.45 291.378 1114.98 276.786C1097.51 262.079 1088.77 242.449 1088.77 217.898C1088.77 206.665 1091.26 196.126 1096.23 186.283C1101.21 176.439 1108.33 167.811 1117.58 160.4C1126.96 152.872 1138.87 146.966 1153.34 142.681C1167.8 138.28 1183.88 136.08 1201.59 136.08C1223.92 136.08 1244.81 139.496 1264.25 146.329C1283.68 153.046 1299.88 162.484 1312.84 174.644L1302.78 182.113C1290.97 171.459 1276.22 163.237 1258.52 157.446C1240.81 151.54 1221.84 148.587 1201.59 148.587C1170.35 148.587 1145.82 155.188 1128 168.39C1110.18 181.592 1101.27 198.095 1101.27 217.898C1101.27 238.859 1108.9 255.478 1124.18 267.753C1139.45 280.029 1161.21 286.167 1189.44 286.167H1208.53C1242.78 286.167 1259.91 296.416 1259.91 316.914C1259.91 326.178 1254.64 333.822 1244.11 339.844C1233.7 345.75 1218.02 348.703 1197.08 348.703C1182.38 348.703 1168.73 347.024 1156.11 343.665C1143.5 340.191 1133.09 335.269 1124.87 328.9L1134.77 321.257C1149.23 331.216 1170 336.196 1197.08 336.196C1214.43 336.196 1227.16 334.401 1235.26 330.811C1243.36 327.221 1247.41 322.588 1247.41 316.914C1247.41 310.313 1244.57 305.622 1238.9 302.843C1233.23 300.064 1223.34 298.674 1209.23 298.674ZM1209.23 248.645H1189.44C1155.65 248.645 1138.76 238.396 1138.76 217.898C1138.76 208.633 1143.96 201.048 1154.38 195.142C1164.91 189.12 1180.64 186.109 1201.59 186.109C1216.28 186.109 1229.94 187.846 1242.55 191.32C1255.16 194.679 1265.58 199.543 1273.79 205.912L1263.9 213.555C1249.43 203.596 1228.66 198.616 1201.59 198.616C1184.23 198.616 1171.5 200.411 1163.4 204.001C1155.3 207.591 1151.25 212.224 1151.25 217.898C1151.25 224.499 1154.09 229.189 1159.76 231.969C1165.43 234.748 1175.32 236.138 1189.44 236.138H1209.23C1241.39 236.138 1266.21 243.492 1283.68 258.199C1301.16 272.791 1309.89 292.362 1309.89 316.914C1309.89 328.147 1307.4 338.686 1302.43 348.529C1297.45 358.373 1290.28 367.058 1280.91 374.586C1271.65 381.998 1259.79 387.904 1245.33 392.305C1230.86 396.589 1214.78 398.732 1197.08 398.732C1174.74 398.732 1153.86 395.373 1134.42 388.657C1114.98 381.824 1098.78 372.328 1085.82 360.168L1095.89 352.698C1107.69 363.353 1122.44 371.633 1140.15 377.539C1157.85 383.329 1176.83 386.225 1197.08 386.225C1228.32 386.225 1252.85 379.624 1270.67 366.422C1288.49 353.219 1297.4 336.717 1297.4 316.914C1297.4 295.953 1289.76 279.334 1274.49 267.058C1259.21 254.783 1237.46 248.645 1209.23 248.645Z" fill="black"/>
<path d="M1399.8 392.652H1387.3V142.507H1399.8V392.652ZM1374.81 392.652H1362.31V142.507H1374.81V392.652ZM1349.81 392.652H1337.32V142.507H1349.81V392.652ZM1424.79 330.116H1544.38V342.623H1424.79V355.13H1544.38V367.638H1424.79V380.145H1544.38V392.652H1412.3V142.507H1544.38V155.014H1424.79V167.522H1544.38V180.029H1424.79V192.536H1544.38V205.043H1424.79V236.138H1537.44V248.645H1424.79V261.152H1537.44V273.66H1424.79V286.167H1537.44V298.674H1424.79V330.116Z" fill="black"/>
<path d="M1668.82 273.138H1744.15C1754.1 273.138 1762.55 270.012 1769.49 263.758C1776.43 257.504 1779.91 248.703 1779.91 237.354C1779.91 229.016 1776.26 221.546 1768.97 214.945C1761.8 208.344 1753.52 205.043 1744.15 205.043H1636.89V392.652H1624.39V192.536H1744.15C1756.99 192.536 1768.22 197.053 1777.82 206.086C1787.54 215.119 1792.4 225.541 1792.4 237.354C1792.4 252.061 1787.72 263.816 1778.34 272.617C1768.97 281.303 1757.57 285.646 1744.15 285.646H1668.82V273.138ZM1668.82 298.153H1744.15C1760.81 298.153 1775.1 292.478 1787.02 281.129C1798.94 269.78 1804.9 255.188 1804.9 237.354C1804.9 222.183 1798.82 208.865 1786.67 197.4C1774.52 185.819 1760.35 180.029 1744.15 180.029H1611.89V392.652H1599.4V167.522H1744.15C1763.82 167.522 1780.95 174.528 1795.53 188.541C1810.11 202.438 1817.4 218.709 1817.4 237.354C1817.4 258.199 1810.16 275.628 1795.7 289.641C1781.35 303.654 1764.17 310.66 1744.15 310.66H1668.82V298.153ZM1668.82 323.167H1744.15C1759.54 323.167 1773.77 319.461 1786.85 312.05C1799.92 304.638 1810.34 294.331 1818.09 281.129C1825.96 267.927 1829.89 253.335 1829.89 237.354C1829.89 222.878 1826.02 209.328 1818.26 196.705C1810.51 183.966 1799.98 173.833 1786.67 166.306C1773.48 158.778 1759.31 155.014 1744.15 155.014H1586.9V392.652H1574.4V142.507H1744.15C1757.23 142.507 1769.78 145.113 1781.81 150.324C1793.96 155.42 1804.44 162.252 1813.23 170.822C1822.02 179.276 1829.08 189.351 1834.4 201.048C1839.73 212.745 1842.39 224.847 1842.39 237.354C1842.39 257.62 1837.76 275.339 1828.5 290.51C1819.25 305.565 1806.81 317.03 1791.19 324.904L1817.4 392.652H1804.03L1779.21 329.942C1776.09 330.984 1772.44 332.027 1768.28 333.069L1791.71 392.652H1778.34L1755.43 335.153C1751.85 335.501 1748.09 335.675 1744.15 335.675L1766.19 392.652H1753L1731.13 335.675H1719.85L1740.85 392.652H1727.66L1706.49 335.675H1668.82V323.167ZM1661.88 392.652H1649.38V217.551H1744.15C1750.63 217.551 1756.13 219.519 1760.64 223.457C1765.15 227.279 1767.41 231.911 1767.41 237.354C1767.41 252.872 1759.66 260.631 1744.15 260.631H1668.82V248.124H1744.15C1751.33 248.124 1754.91 244.534 1754.91 237.354C1754.91 235.385 1753.81 233.706 1751.61 232.316C1749.53 230.811 1747.04 230.058 1744.15 230.058H1661.88V392.652Z" fill="black"/>
<path d="M1957.64 392.652H1945.14V142.507H2064.38V155.014H1957.64V167.522H2064.38V180.029H1957.64V192.536H2064.38V205.043H1957.64V243.26H2056.05V255.767H1957.64V268.274H2056.05V280.782H1957.64V293.289H2056.05V305.796H1957.64V392.652ZM1932.64 392.652H1920.15V142.507H1932.64V392.652ZM1907.65 392.652H1895.15V142.507H1907.65V392.652ZM1882.66 392.652H1870.16V142.507H1882.66V392.652Z" fill="black"/>
<path d="M2272.48 228.668L2262.41 236.312C2252.35 223.804 2239.39 217.551 2223.54 217.551C2209.77 217.551 2197.96 222.472 2188.13 232.316C2178.41 242.044 2173.55 253.798 2173.55 267.58C2173.55 281.361 2178.41 293.173 2188.13 303.017C2197.96 312.745 2209.77 317.609 2223.54 317.609C2231.29 317.609 2238.52 315.929 2245.23 312.571C2252.06 309.213 2257.84 304.58 2262.59 298.674L2272.31 306.838C2266.52 314.134 2259.35 319.867 2250.79 324.036C2242.22 328.089 2233.14 330.116 2223.54 330.116C2206.3 330.116 2191.54 324.036 2179.28 311.876C2167.13 299.6 2161.05 284.835 2161.05 267.58C2161.05 250.324 2167.13 235.617 2179.28 223.457C2191.54 211.181 2206.3 205.043 2223.54 205.043C2233.26 205.043 2242.4 207.186 2250.96 211.471C2259.52 215.64 2266.7 221.372 2272.48 228.668ZM2291.92 213.034L2282.03 220.677C2275.09 211.876 2266.46 204.986 2256.17 200.006C2245.98 195.026 2235.11 192.536 2223.54 192.536C2202.82 192.536 2185.12 199.89 2170.43 214.598C2155.85 229.305 2148.56 246.966 2148.56 267.58C2148.56 288.193 2155.85 305.854 2170.43 320.562C2185.12 335.269 2202.82 342.623 2223.54 342.623C2235.11 342.623 2246.04 340.133 2256.34 335.153C2266.64 330.058 2275.26 323.109 2282.2 314.308L2291.75 322.299C2283.65 332.49 2273.64 340.539 2261.72 346.445C2249.8 352.235 2237.07 355.13 2223.54 355.13C2207.68 355.13 2193.05 351.251 2179.62 343.492C2166.2 335.617 2155.56 324.962 2147.69 311.529C2139.94 298.095 2136.06 283.445 2136.06 267.58C2136.06 251.714 2139.94 237.064 2147.69 223.631C2155.56 210.197 2166.2 199.6 2179.62 191.841C2193.05 183.966 2207.68 180.029 2223.54 180.029C2237.07 180.029 2249.8 182.982 2261.72 188.888C2273.75 194.679 2283.82 202.727 2291.92 213.034ZM2311.53 197.4L2301.81 205.217C2292.44 193.521 2280.93 184.314 2267.27 177.597C2253.62 170.88 2239.04 167.522 2223.54 167.522C2210 167.522 2197.04 170.185 2184.66 175.512C2172.39 180.724 2161.75 187.846 2152.72 196.879C2143.81 205.796 2136.7 216.45 2131.37 228.842C2126.17 241.118 2123.56 254.03 2123.56 267.58C2123.56 281.129 2126.17 294.1 2131.37 306.491C2136.7 318.767 2143.81 329.421 2152.72 338.454C2161.75 347.371 2172.39 354.493 2184.66 359.82C2197.04 365.032 2210 367.638 2223.54 367.638C2239.04 367.638 2253.62 364.279 2267.27 357.562C2280.93 350.845 2292.44 341.639 2301.81 329.942L2311.19 338.107C2300.66 351.193 2287.76 361.5 2272.48 369.027C2257.21 376.439 2240.89 380.145 2223.54 380.145C2208.26 380.145 2193.68 377.192 2179.8 371.285C2165.91 365.263 2153.94 357.273 2143.87 347.313C2133.92 337.238 2125.94 325.252 2119.92 311.355C2114.02 297.458 2111.07 282.866 2111.07 267.58C2111.07 252.293 2114.02 237.701 2119.92 223.804C2125.94 209.907 2133.92 197.979 2143.87 188.02C2153.94 177.944 2165.91 169.954 2179.8 164.047C2193.68 158.025 2208.26 155.014 2223.54 155.014C2241.01 155.014 2257.38 158.778 2272.66 166.306C2288.04 173.833 2301 184.198 2311.53 197.4ZM2330.97 181.766L2320.91 189.236C2309.22 174.76 2294.87 163.353 2277.86 155.014C2260.97 146.676 2242.86 142.507 2223.54 142.507C2206.64 142.507 2190.44 145.808 2174.94 152.409C2159.55 159.01 2146.24 167.927 2135.02 179.16C2123.91 190.278 2115.06 203.596 2108.46 219.114C2101.87 234.517 2098.57 250.672 2098.57 267.58C2098.57 284.488 2101.87 300.701 2108.46 316.219C2115.06 331.621 2123.91 344.939 2135.02 356.173C2146.24 367.29 2159.55 376.149 2174.94 382.75C2190.44 389.351 2206.64 392.652 2223.54 392.652C2242.86 392.652 2260.97 388.483 2277.86 380.145C2294.87 371.807 2309.22 360.4 2320.91 345.924L2330.8 353.567C2317.96 369.548 2302.16 382.171 2283.42 391.436C2264.79 400.585 2244.83 405.159 2223.54 405.159C2204.91 405.159 2187.09 401.511 2170.08 394.215C2153.18 386.92 2138.61 377.134 2126.34 364.858C2114.07 352.583 2104.3 337.991 2097.01 321.083C2089.72 304.059 2086.07 286.225 2086.07 267.58C2086.07 248.935 2089.72 231.158 2097.01 214.25C2104.3 197.226 2114.07 182.577 2126.34 170.301C2138.61 158.025 2153.18 148.24 2170.08 140.944C2187.09 133.648 2204.91 130 2223.54 130C2244.83 130 2264.84 134.632 2283.59 143.897C2302.33 153.046 2318.13 165.669 2330.97 181.766Z" fill="black"/>
<ellipse cx="280" cy="280" rx="280" ry="280" fill="#3E7FCB"/>
<ellipse cx="280" cy="280" rx="260" ry="260" fill="white"/>
<ellipse cx="280" cy="280" rx="240" ry="240" fill="#3E7FCB"/>
<path d="M366.969 420C352.63 420 340.046 410.908 335.655 397.375L319.684 348.652H239.787L224.948 396.931C220.469 410.727 207.79 419.962 193.377 419.962C189.917 419.962 186.48 419.414 183.161 418.336C165.934 413.157 156.153 394.592 161.431 376.974L228.868 163.095C233.247 149.49 246.139 140 260.221 140H296.08C310.241 140 323.131 149.328 327.425 162.686L398.346 376.484C404.017 393.964 394.627 412.728 377.425 418.335C374.023 419.44 370.506 420 366.969 420Z" fill="white" stroke="#3E7FCB" stroke-width="5.36298"/>
<path d="M393.244 210V176.756H360V163.244H393.244V130H406.756V163.244H440V176.756H406.756V210H393.244Z" fill="white"/>
</svg>
